<?xml version="1.0" standalone="no"?><!DOCTYPE svg PUBLIC "-//W3C//DTD SVG 1.1//EN" "http://www.w3.org/Graphics/SVG/1.1/DTD/svg11.dtd"><svg width="200" height="200" viewBox="0 0 200 200" version="1.1" xmlns="http://www.w3.org/2000/svg" xmlns:xlink="http://www.w3.org/1999/xlink"><defs><style type="text/css"><![CDATA[
@font-face { font-family: ifont; src: url("//at.alicdn.com/t/font_1442373896_4754455.eot?#iefix") format("embedded-opentype"), url("//at.alicdn.com/t/font_1442373896_4754455.woff") format("woff"), url("//at.alicdn.com/t/font_1442373896_4754455.ttf") format("truetype"), url("//at.alicdn.com/t/font_1442373896_4754455.svg#ifont") format("svg"); }

]]></style></defs><g class="transform-group"><g transform="scale(0.1953125, 0.1953125)"><path d="M178.709171 203.956182l-89.551572 0c-14.128789 0-25.582655 11.453866-25.582655 25.582655s11.453866 25.582655 25.582655 25.582655l89.551572 0c14.128789 0 25.582655-11.453866 25.582655-25.582655S192.83796 203.956182 178.709171 203.956182zM322.407967 255.121492l610.201579 0c14.128789 0 25.582655-11.453866 25.582655-25.582655s-11.453866-25.582655-25.582655-25.582655L322.407967 203.956182c-14.128789 0-25.582655 11.453866-25.582655 25.582655S308.279179 255.121492 322.407967 255.121492zM178.709171 484.923318l-89.551572 0c-14.128789 0-25.582655 11.453866-25.582655 25.582655s11.453866 25.582655 25.582655 25.582655l89.551572 0c14.128789 0 25.582655-11.453866 25.582655-25.582655S192.83796 484.923318 178.709171 484.923318zM932.609547 484.923318 322.407967 484.923318c-14.128789 0-25.582655 11.453866-25.582655 25.582655s11.453866 25.582655 25.582655 25.582655l610.201579 0c14.128789 0 25.582655-11.453866 25.582655-25.582655S946.738335 484.923318 932.609547 484.923318zM178.709171 765.891478l-89.551572 0c-14.128789 0-25.582655 11.452843-25.582655 25.582655s11.453866 25.582655 25.582655 25.582655l89.551572 0c14.128789 0 25.582655-11.452843 25.582655-25.582655S192.83796 765.891478 178.709171 765.891478zM932.609547 765.891478 322.407967 765.891478c-14.128789 0-25.582655 11.453866-25.582655 25.582655s11.453866 25.582655 25.582655 25.582655l610.201579 0c14.128789 0 25.582655-11.453866 25.582655-25.582655S946.738335 765.891478 932.609547 765.891478z" fill="#ecf0f1"></path></g></g></svg>